Coordinates
version=1
nRows=43
nColumns=12
inDegrees=yes

Units are S.I. units (second, meters, Newtons, ...)
Angles are in degrees

endheader
time	SC_y	SC_z	SC_x	AC_y	AC_z	AC_x	GH_y	GH_z	GH_yy	EL_x	PS_y
       0.0              -40.21       -0.02209          3.057          53.15          -8.69         -11.91          12.96          43.77         -176.1          108.9          128.8
   0.03697              -40.21       -0.01944          3.069          53.15         -8.688         -11.91          12.93          43.77         -176.1          108.9          128.8
   0.07393              -40.22       -0.01663          3.081          53.16         -8.686         -11.92          12.91          43.77         -176.1          108.9          128.8
    0.1109              -40.22       -0.01364          3.095          53.16         -8.684         -11.92          12.89          43.76         -176.1          108.9          128.8
    0.1479              -40.22       -0.01046          3.109          53.16         -8.682         -11.92          12.86          43.76         -176.1          108.9          128.8
    0.1848              -40.23      -0.007066          3.124          53.16          -8.68         -11.92          12.83          43.75         -176.1          108.9          128.8
    0.2218              -40.23      -0.003443           3.14          53.17         -8.678         -11.92           12.8          43.75         -176.1          108.9          128.8
    0.2588              -40.23       0.000431          3.157          53.17         -8.675         -11.92          12.77          43.75         -176.1          108.9          128.9
    0.2957              -40.24       0.004579          3.176          53.17         -8.672         -11.92          12.73          43.74         -176.1          108.9          128.9
    0.3327              -40.24       0.009028          3.195          53.17         -8.669         -11.93           12.7          43.74         -176.0          108.9          128.9
    0.3697              -40.25        0.01381          3.217          53.18         -8.666         -11.93          12.66          43.73         -176.0          108.9          128.9
    0.4066              -40.25        0.01895           3.24          53.18         -8.663         -11.93          12.61          43.73         -176.0          108.9          128.9
    0.4436              -40.26         0.0245          3.264          53.19         -8.659         -11.93          12.57          43.72         -176.0          108.9          128.9
    0.4806              -40.26        0.03049          3.291          53.19         -8.655         -11.93          12.52          43.71         -176.0          108.9          128.9
    0.5175              -40.27        0.03697           3.32          53.19         -8.651         -11.94          12.46          43.71         -176.0          108.9          128.9
    0.5545              -40.27          0.044          3.351           53.2         -8.646         -11.94           12.4           43.7         -176.0          108.9          128.9
    0.5914              -40.28        0.05164          3.385           53.2         -8.641         -11.94          12.34          43.69         -176.0          108.9          128.9
    0.6284              -40.29        0.05996          3.422          53.21         -8.636         -11.95          12.27          43.68         -175.9          108.9          128.9
    0.6654               -40.3        0.06905          3.463          53.22          -8.63         -11.95          12.19          43.67         -175.9          109.0          128.9
    0.7023              -40.31          0.079          3.507          53.22         -8.623         -11.95          12.11          43.66         -175.9          109.0          128.9
    0.7393              -40.32        0.08992          3.555          53.23         -8.616         -11.96          12.02          43.65         -175.9          109.0          128.9
    0.7763              -40.33         0.1019          3.609          53.24         -8.608         -11.96          11.92          43.63         -175.9          109.0          129.0
    0.8132              -40.34         0.1152          3.668          53.25           -8.6         -11.97           11.8          43.62         -175.8          109.0          129.0
    0.8502              -40.36         0.1299          3.734          53.26          -8.59         -11.98          11.68           43.6         -175.8          109.0          129.0
    0.8872              -40.37         0.1463          3.806          53.27         -8.579         -11.98          11.54          43.58         -175.8          109.0          129.0
    0.9241              -40.39         0.1646          3.888          53.28         -8.567         -11.99          11.39          43.56         -175.7          109.0          129.0
    0.9611              -40.41          0.185          3.979           53.3         -8.554          -12.0          11.22          43.54         -175.7          109.1          129.1
    0.9981              -40.43          0.208          4.081          53.32         -8.539         -12.01          11.03          43.51         -175.6          109.1          129.1
     1.035              -40.45          0.234          4.197          53.33         -8.522         -12.02          10.81          43.48         -175.6          109.1          129.1
     1.072              -40.48         0.2635          4.328          53.35         -8.502         -12.03          10.56          43.45         -175.5          109.1          129.1
     1.109              -40.51         0.2972          4.478          53.38          -8.48         -12.04          10.28          43.41         -175.5          109.1          129.2
     1.146              -40.55         0.3358           4.65          53.41         -8.455         -12.06          9.952          43.37         -175.4          109.2          129.2
     1.183              -40.59         0.3805          4.849          53.44         -8.425         -12.08          9.578          43.32         -175.3          109.2          129.3
      1.22              -40.64         0.4323          5.079          53.47         -8.391          -12.1          9.143          43.26         -175.2          109.3          129.3
     1.257               -40.7          0.493          5.349          53.52         -8.351         -12.12          8.633          43.19         -175.0          109.3          129.4
     1.294              -40.77         0.5645          5.668          53.57         -8.304         -12.15          8.033          43.11         -174.9          109.4          129.5
     1.331              -40.85         0.6495          6.046          53.63         -8.248         -12.19          7.319          43.01         -174.7          109.4          129.6
     1.368              -40.95         0.7514            6.5           53.7         -8.181         -12.23          6.464           42.9         -174.5          109.5          129.7
     1.405              -41.06         0.8747          7.048          53.79           -8.1         -12.28          5.429          42.76         -174.3          109.6          129.8
     1.442              -41.21          1.025          7.718          53.89         -8.001         -12.34          4.165          42.59         -174.0          109.7          130.0
     1.479              -41.38          1.211          8.546          54.03         -7.879         -12.41          2.605          42.38         -173.6          109.9          130.2
     1.516              -41.61          1.443          9.577          54.19         -7.727         -12.51         0.6593          42.12         -173.1          110.1          130.4
     1.553              -41.88          1.735          10.88           54.4         -7.535         -12.63         -1.791          41.79         -172.5          110.3          130.7
